<svg xmlns="http://www.w3.org/2000/svg" viewBox="0 0 48 48"><title>7-Book</title><g id="_7-Book" data-name="7-Book"><rect x="16" y="41" width="28" height="2"/><path d="M5,42H3V6A6.006,6.006,0,0,1,9,0H44a1,1,0,0,1,1,1V37H43V2H9A4,4,0,0,0,5,6Z"/><path d="M44,48H9A6,6,0,0,1,9,36H44a1,1,0,0,1,1,1V47A1,1,0,0,1,44,48ZM9,38a4,4,0,0,0,0,8H43V38Z"/><rect x="9" y="1" width="2" height="36"/><path d="M39,12H37V8H17v4H15V7a1,1,0,0,1,1-1H38a1,1,0,0,1,1,1Z"/><path d="M38,20H16a1,1,0,0,1-1-1V15h2v3H37V15h2v4A1,1,0,0,1,38,20Z"/><rect x="15" y="14" width="24" height="2"/><rect x="15" y="23" width="2" height="2"/><rect x="19" y="23" width="2" height="2"/><rect x="27" y="23" width="12" height="2"/><rect x="12" y="41" width="2" height="2"/></g></svg>